PathFileType	4	(X/Y/Z)	C:/Users/opensim2020/Desktop/walking_exp_matlab/subject06_walking20_straight_02.trc	
DataRate	CameraRate	NumFrames	NumMarkers	Units	OrigDataRate	OrigDataStartFrame	OrigNumFrames	
100.00	100.00	4	43	mm	100.00	1320	105	
Frame#	Time	LFHD			RFHD			LBHD			RBHD			C7			T10			CLAV			STRN			RBAK			LSHO			LUPA			LELB			LFRM			LWRA			LWRB			LFIN			RSHO			RUPA			RELB			RFRM			RWRA			RWRB			RFIN			LASI			RASI			LPSI			RPSI			LTHI			LKNE			LTIB			LANK			LHEE			LTOE			RTHI			RKNE			RTIB			RANK			RHEE			RTOE			*39			*40			*41			*42			
		X1	Y1	Z1	X2	Y2	Z2	X3	Y3	Z3	X4	Y4	Z4	X5	Y5	Z5	X6	Y6	Z6	X7	Y7	Z7	X8	Y8	Z8	X9	Y9	Z9	X10	Y10	Z10	X11	Y11	Z11	X12	Y12	Z12	X13	Y13	Z13	X14	Y14	Z14	X15	Y15	Z15	X16	Y16	Z16	X17	Y17	Z17	X18	Y18	Z18	X19	Y19	Z19	X20	Y20	Z20	X21	Y21	Z21	X22	Y22	Z22	X23	Y23	Z23	X24	Y24	Z24	X25	Y25	Z25	X26	Y26	Z26	X27	Y27	Z27	X28	Y28	Z28	X29	Y29	Z29	X30	Y30	Z30	X31	Y31	Z31	X32	Y32	Z32	X33	Y33	Z33	X34	Y34	Z34	X35	Y35	Z35	X36	Y36	Z36	X37	Y37	Z37	X38	Y38	Z38	X39	Y39	Z39	X40	Y40	Z40	X41	Y41	Z41	X42	Y42	Z42	X43	Y43	Z43	

79	0.780	1482.28076	2.48971	1653.55591	1351.55200	9.74789	1634.53015	1492.46301	137.25708	1602.88037	1363.83093	142.98126	1589.35742	1441.32214	141.68060	1437.07373	1442.47473	164.31599	1106.24048	1438.75000	29.05081	1363.44775	1451.03149	-17.40892	1189.07495	1370.37720	209.71359	1260.97815	1601.31567	84.21168	1395.52271	1674.28015	63.81195	1195.56165	1687.72693	49.58721	1084.30066	1704.52039	-48.69910	973.62073	1658.44995	-166.00905	927.78235	1691.06726	-123.20744	881.16302	1692.69751	-208.02649	850.95245	1277.65112	80.05555	1389.40723	1193.60242	148.53239	1200.35388	1179.33130	162.31737	1078.88293	1158.68652	171.81325	959.24878	1182.41199	139.18756	809.29834	1146.06360	195.04887	823.80890	1141.31909	176.83220	740.96100	1551.66431	-6.77436	941.60260	1332.34546	-21.20635	963.61395	1517.90820	148.13190	969.29077	1350.17310	133.15268	984.31476	1599.05591	57.12944	617.26166	1583.87476	45.76700	455.60809	1571.86194	248.66837	321.78195	1533.81470	392.85342	234.45612	1486.61694	420.55640	261.56543	1531.03088	365.98419	89.35016	1273.51172	-40.48571	641.26306	1307.45850	-81.42979	524.90369	1299.16028	-57.97393	259.58762	1337.50464	-37.55294	73.93819	1379.32556	5.10983	48.86954	1345.87781	-187.41264	39.63474	1425.63818	104.93819	1690.52466									 
80	0.790	1481.68152	-11.73294	1655.95984	1350.92371	-4.51424	1636.85107	1491.69312	122.71565	1605.35193	1363.17383	128.63516	1591.84180	1440.37305	127.70197	1439.45349	1440.75476	150.31299	1108.67236	1438.23792	14.96292	1365.79028	1450.11914	-31.34463	1191.41553	1368.59668	195.41676	1263.64233	1600.75098	70.70694	1397.39514	1672.94910	52.75753	1196.77087	1685.45996	39.07360	1085.04248	1702.72839	-55.74058	970.81946	1657.45251	-171.97552	921.01575	1689.86963	-127.23428	876.04382	1691.79858	-210.91913	842.57080	1276.91064	65.20823	1392.09546	1192.08350	131.31216	1202.21326	1177.45178	143.12152	1080.54028	1157.12976	150.38599	960.76105	1181.63428	114.86900	811.68561	1144.73169	170.78676	824.78003	1139.94226	150.18120	742.77905	1551.08972	-20.26496	944.46655	1331.68945	-35.58813	964.89685	1516.05383	134.67029	971.68970	1348.41589	118.93824	986.39545	1598.08240	36.80026	620.28503	1582.75891	20.23268	459.12231	1570.44861	220.89403	324.15167	1532.12732	364.06638	234.32599	1485.23486	393.21249	260.93671	1529.29089	332.71387	91.00186	1273.65125	-50.98280	642.01202	1307.26685	-89.29893	524.75775	1299.63135	-60.35198	259.55054	1337.83411	-37.81192	74.08968	1379.46362	5.17680	48.97602	1346.17871	-187.40717	39.81871	1424.96838	90.59334	1692.97815									 
81	0.800	1481.17200	-25.98722	1658.32861	1350.44617	-18.81366	1639.29102	1491.31042	108.78461	1607.87256	1362.68555	114.37384	1594.37659	1439.56738	113.57778	1441.94958	1438.90979	136.42258	1111.14539	1437.68188	0.90561	1368.21777	1449.21912	-45.11565	1193.77490	1366.76367	181.11163	1266.24097	1600.16528	57.26337	1399.40808	1671.60034	42.03625	1198.01807	1683.31360	28.71404	1086.03979	1700.96570	-62.31613	968.12909	1656.55090	-177.14371	914.08203	1688.81873	-130.38821	870.89490	1691.15051	-212.62035	834.11566	1276.25415	50.52267	1394.94275	1190.68701	114.20165	1204.29517	1175.90491	124.11976	1082.48682	1155.83789	128.93806	962.47461	1181.06958	90.40656	814.48694	1143.42480	146.11282	826.18958	1138.62769	123.25531	744.89191	1550.60889	-33.64673	947.53528	1331.25842	-49.84542	966.55231	1514.40698	121.28342	974.35876	1346.79309	104.75150	988.54572	1597.28918	16.39048	623.83752	1581.65393	-5.13164	463.13791	1569.23889	192.33028	325.30817	1530.49683	334.41962	232.58643	1483.49304	364.80350	258.25339	1527.45972	297.35483	90.79903	1273.74133	-61.29808	642.97504	1307.10889	-96.72640	524.57886	1299.99072	-62.45392	259.36090	1338.18518	-37.91843	74.22565	1379.59949	5.34404	49.06395	1346.60864	-187.24403	39.98484	1424.46179	76.31175	1695.45874									 
82	0.810	1480.86377	-40.23699	1660.67749	1350.11084	-33.03745	1641.71973	1490.90161	94.58836	1610.37427	1362.27344	100.21725	1597.00281	1438.76843	99.45057	1444.50586	1437.09985	122.57700	1113.69995	1437.16943	-13.05498	1370.61597	1448.33240	-58.92094	1196.20508	1365.08374	166.89363	1269.05322	1599.46375	43.91795	1401.41223	1670.14941	30.97534	1199.49097	1681.25586	18.58278	1087.23950	1699.65466	-68.57910	965.67194	1655.79285	-181.49194	907.08783	1687.80591	-132.68840	865.88043	1690.62964	-213.19766	825.69641	1275.62549	35.96742	1397.87720	1189.27966	97.17577	1206.53918	1174.41882	105.20648	1084.64673	1154.28259	106.67398	964.63495	1180.30725	65.61730	817.70538	1142.13440	121.17039	827.91418	1137.40051	96.02457	747.45728	1550.05115	-47.13736	950.69769	1330.83545	-63.96239	968.62616	1512.96741	107.77711	977.07312	1345.57837	90.70596	990.72693	1596.79114	-3.94348	627.67383	1580.48535	-30.56539	467.57828	1567.83972	163.82513	325.47394	1528.82959	303.91046	229.26384	1481.60242	335.71277	253.65396	1525.91821	260.34180	89.91855	1273.94006	-71.21426	643.59576	1307.09741	-103.57207	524.13641	1300.33875	-64.86904	259.16714	1338.47974	-38.06765	74.35810	1379.77625	5.53340	49.13491	1347.30310	-187.06929	40.12214	1424.18323	61.99739	1697.96436									 
